<svg width="138" height="32" viewBox="0 0 138 32" fill="none" xmlns="http://www.w3.org/2000/svg">
<circle cx="16" cy="16" r="16" fill="#654CFF"/>
<path d="M42 16.6909C42 14.9722 42.6787 13.6416 44.0361 12.6992C45.6621 11.5664 47.9375 11 50.8623 11C51.3701 11 51.8413 11.0244 52.2759 11.0732V14.5449C51.6362 14.457 50.9429 14.4131 50.1958 14.4131C49.4536 14.4131 48.8408 14.5913 48.3574 14.9478C47.8789 15.3042 47.6396 15.8706 47.6396 16.647C47.6396 18.2876 48.5161 19.1079 50.269 19.1079C50.7134 19.1079 51.3823 19.0225 52.2759 18.8516V22.0669C51.6118 22.1401 50.9331 22.1768 50.2397 22.1768C46.6509 22.1768 44.1973 21.3174 42.8789 19.5986C42.293 18.8369 42 17.8677 42 16.6909Z" fill="#654CFF"/>
<path d="M58.4722 11.0806L59.3218 11.0293C59.3755 11.1904 59.4023 11.4175 59.4023 11.7104C59.4023 12.0034 59.3535 13.0972 59.2559 14.9917C60.5645 14.3374 61.8169 14.0103 63.0132 14.0103C64.2095 14.0103 65.1812 14.3301 65.9282 14.9697C66.6802 15.6045 67.0562 16.415 67.0562 17.4014L66.9243 21.8398L62.5078 21.8765L62.6616 18.0312C62.6616 17.1182 62.1221 16.6616 61.043 16.6616C60.2666 16.6616 59.7515 16.9937 59.4976 17.6577C59.2925 18.1948 59.1899 18.9883 59.1899 20.0381V21.7666C58.9116 21.8057 58.6455 21.8301 58.3916 21.8398L54.7734 21.8545C54.7539 21.6396 54.7441 21.4028 54.7441 21.144L55.0884 11.3735C55.5034 11.354 56.6313 11.2563 58.4722 11.0806Z" fill="#654CFF"/>
<path d="M76.9512 20.4336C76.6436 20.9316 76.1943 21.3369 75.6035 21.6494C75.0127 21.9619 74.3608 22.1182 73.6479 22.1182C72.9351 22.1182 72.3125 22.0425 71.7803 21.8911C71.248 21.7446 70.7549 21.5249 70.3008 21.2319C69.8516 20.939 69.4902 20.5435 69.2168 20.0454C68.9434 19.5474 68.8066 18.9688 68.8066 18.3096C68.8066 17.6455 68.9287 17.0352 69.1729 16.4785C69.4219 15.917 69.7563 15.4604 70.1763 15.1089C71.0356 14.3765 72.083 14.0103 73.3184 14.0103C74.1729 14.0103 74.8711 14.1177 75.4131 14.3325C75.9551 14.5474 76.4336 14.9331 76.8486 15.4897L76.8633 13.9297L80.1738 14.208L80.1519 21.6714L77.3979 21.8765L76.9512 20.4336ZM73.5234 17.0278C73.2402 17.355 73.0986 17.748 73.0986 18.207C73.0986 18.6611 73.2378 19.0566 73.5161 19.3936C73.7944 19.7256 74.1924 19.8916 74.71 19.8916C75.2275 19.8916 75.6279 19.7451 75.9111 19.4521C76.1992 19.1543 76.3433 18.7466 76.3433 18.229C76.3433 17.7114 76.1992 17.2988 75.9111 16.9912C75.623 16.6836 75.2227 16.5298 74.71 16.5298C74.2021 16.5298 73.8066 16.6958 73.5234 17.0278Z" fill="#654CFF"/>
<path d="M91.4092 21.5249C90.9355 21.7104 90.3472 21.8545 89.644 21.957C88.9458 22.0596 88.2891 22.1108 87.6738 22.1108C87.0635 22.1108 86.4873 22.04 85.9453 21.8984C84.2217 21.459 83.3599 20.4189 83.3599 18.7783C83.3599 18.749 83.3599 18.7222 83.3599 18.6978V18.6099C83.3745 18.4683 83.3892 18.0776 83.4038 17.438C83.4185 16.7935 83.4307 16.4395 83.4404 16.376H82.6934C82.2686 16.376 81.9805 16.354 81.8291 16.3101L82.2832 14.6328H83.6162C83.6846 14.1201 83.7358 13.5415 83.77 12.897C83.8091 12.2524 83.8384 11.8472 83.8579 11.6812C85.6597 11.5151 87.0854 11.4321 88.1353 11.4321C88.1646 11.4321 88.1938 11.4321 88.2231 11.4321C88.228 11.5103 88.2305 11.5884 88.2305 11.6665L88.0913 14.6548H90.9404C91.1699 14.6548 91.3848 14.6841 91.585 14.7427L91.1968 16.3027C91.0454 16.3516 90.7817 16.376 90.4058 16.376H87.9521L87.8789 18.5073C87.8789 18.9761 87.9937 19.3032 88.2231 19.4888C88.4575 19.6743 88.7969 19.7671 89.2412 19.7671C89.6904 19.7671 90.3252 19.6499 91.1455 19.4155C91.3066 19.3667 91.3994 19.3398 91.4238 19.335C91.4385 19.4766 91.4458 19.8135 91.4458 20.3457C91.4458 20.8779 91.4336 21.271 91.4092 21.5249Z" fill="#654CFF"/>
<path d="M102.593 21.8472C102.593 21.8472 100.813 21.8618 97.2539 21.8911C97.2588 21.6274 97.2734 21.2148 97.2979 20.6533C97.3271 20.0918 97.3442 19.6987 97.3491 19.4741L97.4956 11.3076H104.585L109.258 11.2344C109.683 11.2344 110.013 11.2637 110.247 11.3223C110.247 11.4492 110.223 11.6689 110.174 11.9814C110.13 12.2891 110.101 12.5161 110.086 12.6626L109.947 13.9077C109.571 13.9614 109.192 13.9932 108.812 14.0029C108.812 14.0029 106.844 14.0273 102.908 14.0762C102.879 14.4082 102.854 14.9624 102.835 15.7388C105.262 15.7144 106.644 15.7021 106.98 15.7021C107.322 15.7021 107.635 15.7314 107.918 15.79C107.918 16.1367 107.808 16.8643 107.588 17.9727C106.919 18.041 106.187 18.0776 105.391 18.0825L102.732 18.0972L102.593 21.8472Z" fill="#654CFF"/>
<path d="M115.235 18.1338C115.235 19.4131 115.76 20.0527 116.81 20.0527C117.376 20.0576 117.806 19.8696 118.099 19.4888C118.313 19.2056 118.453 18.9248 118.516 18.6465C118.672 17.9678 118.75 16.9668 118.75 15.6436V14.4717C119.361 14.4521 120.75 14.418 122.918 14.3691C122.928 14.6279 122.933 14.8257 122.933 14.9624L122.566 21.6274L120.259 21.9717C119.937 21.3271 119.703 20.8218 119.556 20.4556C119.073 21.0024 118.462 21.4175 117.725 21.7007C116.993 21.979 116.226 22.1182 115.425 22.1182C113.672 22.1133 112.374 21.6763 111.529 20.8071C111.06 20.3237 110.826 19.6768 110.826 18.8662C110.826 18.0508 110.853 17.1865 110.906 16.2734C110.96 15.3604 110.989 14.7915 110.994 14.5669C111.165 14.5522 111.622 14.5327 112.364 14.5083C113.106 14.4839 113.643 14.4619 113.975 14.4424L115.411 14.3545C115.293 16.6055 115.235 17.8652 115.235 18.1338Z" fill="#654CFF"/>
<path d="M132.381 17.1597C132.103 16.8228 131.778 16.6543 131.407 16.6543C130.455 16.6543 129.854 17.062 129.605 17.8774C129.454 18.3706 129.378 18.9541 129.378 19.6279L129.341 21.8472L124.969 21.9204C124.974 21.4028 125.042 19.0396 125.174 14.8306L127.627 14.3105L128.411 15.8193C128.841 15.1895 129.439 14.7305 130.206 14.4424C130.977 14.1543 131.8 14.0103 132.674 14.0103C133.851 14.0103 134.834 14.2471 135.625 14.7207C136.7 15.3652 137.239 16.4224 137.244 17.8921C137.244 18.0874 137.227 18.6123 137.193 19.4668C137.159 20.3164 137.132 21.1172 137.112 21.8691L132.747 21.8984L132.791 18.4121C132.791 17.9092 132.654 17.4917 132.381 17.1597Z" fill="#654CFF"/>
</svg>
